<?xml version="1.0" encoding="utf-8"?>
<!-- Generator: Adobe Illustrator 23.0.1, SVG Export Plug-In . SVG Version: 6.00 Build 0)  -->
<svg version="1.1" id="图层_1" xmlns="http://www.w3.org/2000/svg" xmlns:xlink="http://www.w3.org/1999/xlink" x="0px" y="0px"
	 viewBox="0 0 21 468" style="enable-background:new 0 0 21 468;" xml:space="preserve">
<style type="text/css">
	.st0{display:none;}
	.st1{display:inline;}
	.st2{enable-background:new    ;}
	.st3{fill:#FFFFFF;}
</style>
<g id="图层_1_1_" class="st0">
	<title>未标题-1</title>
	<path class="st1" d="M10.5,12h9v9c0.1,1.7-0.6,3.4-1.9,4.5c-1.1,1-2.6,1.5-4.1,1.5h-6c-3.3,0-6-2.7-6-6V6c0-1.6,0.6-3.1,1.8-4.2
		C4.4,0.6,5.9,0,7.5,0h6c3.8,0,5.8,2,6,6h-3c-0.2-2-1.2-3-3-3h-3C9.7,3,9,3.3,8.4,3.9C7.9,4.4,7.5,5.2,7.5,6v15
		c0,0.8,0.3,1.6,0.8,2.1c1.2,1.2,3.1,1.2,4.2,0c0.6-0.6,0.9-1.3,0.9-2.2v-6h-3L10.5,12z"/>
	<path class="st1" d="M1.5,63V36h12c1.6,0,3.1,0.6,4.2,1.8c1.1,1.1,1.8,2.6,1.8,4.2v1.6c0,1.4-0.5,2.8-1.4,3.9
		c-0.9,1.2-2.4,1.8-4.6,1.8h3c0.8,0,1.6,0.3,2.1,0.9c0.6,0.6,0.9,1.3,0.9,2.1V63h-6v-9c0-1.7-1.3-3-3-3h-3v12H1.5z M7.5,48h3
		c1.7,0,3-1.3,3-3v-3c0-1.7-1.3-3-3-3h-3V48z"/>
	<path class="st1" d="M1.5,99V78c0-3.3,2.7-6,6-6h6c1.6,0,3.1,0.6,4.2,1.8c1.1,1.1,1.8,2.6,1.8,4.2v21h-6V87h-6v12H1.5z M7.5,84h6
		v-6c0-1.7-1.3-3-3-3c-0.8,0-1.5,0.3-2.1,0.9s-0.9,1.3-0.9,2.2L7.5,84z"/>
	<path class="st1" d="M1.5,135v-27h12c1.6,0,3.1,0.6,4.2,1.8c1.1,1.1,1.8,2.6,1.8,4.2v3c0,1.6-0.6,3.1-1.8,4.2
		c-1.1,1.2-2.6,1.8-4.2,1.8h-6v12H1.5z M7.5,120h3c1.7,0,3-1.3,3-3v-3c0-1.7-1.3-3-3-3h-3V120z"/>
	<path class="st1" d="M1.5,171v-27h6v12h6v-12h6v27h-6v-12h-6v12H1.5z"/>
	<path class="st1" d="M7.5,207v-27h6v27H7.5z"/>
	<path class="st1" d="M19.5,237c-0.2,4-2.2,6-6,6h-6c-3.3,0-6-2.7-6-6v-15c0-1.6,0.6-3.1,1.8-4.2c1.1-1.2,2.7-1.8,4.3-1.8h6
		c3.8,0,5.8,2,6,6h-3c-0.2-2-1.2-3-3-3h-3c-0.8,0-1.5,0.3-2.1,0.9c-0.6,0.6-0.9,1.3-0.9,2.1v15c0,0.8,0.3,1.6,0.9,2.1
		c0.5,0.6,1.3,0.9,2.1,0.9h3c1.8,0,2.8-1,3-3H19.5z"/>
	<path class="st1" d="M1.5,288v-27h12c1.6,0,3.1,0.6,4.2,1.8c1.1,1.1,1.8,2.6,1.8,4.2v15c0,1.6-0.6,3.1-1.8,4.2
		c-1.1,1.2-2.6,1.8-4.2,1.8H1.5z M7.5,285h3c0.8,0,1.6-0.3,2.1-0.9c0.6-0.6,0.9-1.3,0.9-2.1v-15c0-1.7-1.3-3-3-3h-3V285z"/>
	<path class="st1" d="M3,324v-27h15v3H9v9h6v3H9v9h9v3H3z"/>
	<path class="st1" d="M18,339h-3c-0.3-2-1.2-3-2.8-3c-0.9-0.1-1.7,0.2-2.4,0.8c-0.6,0.6-0.9,1.4-0.8,2.3c0,0.8,0.3,1.5,0.9,2.1
		l6.4,7.1c1.1,1.1,1.7,2.7,1.8,4.2v1.5c0,1.6-0.6,3.1-1.8,4.2c-1.1,1.2-2.6,1.8-4.2,1.8H9c-1.6,0.1-3.3-0.4-4.5-1.5
		c-1.1-1.2-1.6-2.9-1.5-4.5h3v0.5c0,0.7,0.3,1.5,0.9,1.9s1.3,0.7,2.1,0.6c0.8,0.1,1.7-0.2,2.3-0.8c0.5-0.6,0.8-1.4,0.7-2.2
		c0-0.8-0.3-1.5-0.9-2.1l-6.4-7.1c-1.1-1.1-1.7-2.7-1.8-4.2v-1.5c0-3.3,2.7-6,6-6h3C15.8,333,17.8,335,18,339z"/>
	<path class="st1" d="M7.5,396v-27h6v27H7.5z"/>
	<path class="st1" d="M10.5,417h9v9c0.1,1.7-0.6,3.4-1.9,4.5c-1.1,1-2.6,1.5-4.1,1.5h-6c-3.3,0-6-2.7-6-6v-15c0-1.6,0.6-3.1,1.8-4.2
		c1.1-1.2,2.7-1.8,4.3-1.8h6c3.8,0,5.8,2,6,6h-3c-0.2-2-1.2-3-3-3h-3c-0.8,0-1.5,0.3-2.1,0.9s-0.9,1.3-0.9,2.1v15
		c0,0.8,0.3,1.6,0.9,2.1c1.2,1.2,3.1,1.2,4.2,0c0.6-0.6,0.9-1.3,0.9-2.2v-6h-3L10.5,417z"/>
	<path class="st1" d="M0,468v-27h1.4L18,456v-15h3v27h-1.4L3,453v15H0z"/>
</g>
<g id="图层_2_1_">
	<g class="st2">
		<path class="st3" d="M1.5,2h18v0.9L11,11.5l8.5,8.5v2h-18v-4h11l-7-7l7-7h-11V2z"/>
		<path class="st3" d="M19.5,30v4c0,1.1-0.4,2-1.2,2.8c-0.8,0.8-1.7,1.2-2.8,1.2h-10c-1.1,0-2-0.4-2.8-1.2C1.9,36,1.5,35.1,1.5,34
			v-4c0-1.1,0.4-2,1.2-2.8C3.5,26.4,4.4,26,5.5,26h10c1.1,0,2,0.4,2.8,1.2S19.5,28.9,19.5,30z M15.5,30h-10c-0.5,0-1,0.2-1.4,0.6
			C3.7,31,3.5,31.4,3.5,32c0,0.6,0.2,1,0.6,1.4C4.5,33.8,5,34,5.5,34h10c0.6,0,1-0.2,1.4-0.6c0.4-0.4,0.6-0.9,0.6-1.4
			c0-0.5-0.2-1-0.6-1.4C16.6,30.2,16.1,30,15.5,30z"/>
		<path class="st3" d="M1.5,44h16v-4h2v12h-2v-4h-16V44z"/>
		<path class="st3" d="M1.5,56h18v4h-18V56z"/>
		<path class="st3" d="M19.5,70v4c0,1.1-0.4,2-1.2,2.8c-0.8,0.8-1.7,1.2-2.8,1.2h-10c-1.1,0-2-0.4-2.8-1.2C1.9,76,1.5,75.1,1.5,74
			v-4c0-1.1,0.4-2,1.2-2.8C3.5,66.4,4.4,66,5.5,66h10c1.1,0,2,0.4,2.8,1.2S19.5,68.9,19.5,70z M15.5,70h-10c-0.5,0-1,0.2-1.4,0.6
			C3.7,71,3.5,71.4,3.5,72c0,0.6,0.2,1,0.6,1.4C4.5,73.8,5,74,5.5,74h10c0.6,0,1-0.2,1.4-0.6c0.4-0.4,0.6-0.9,0.6-1.4
			c0-0.5-0.2-1-0.6-1.4C16.6,70.2,16.1,70,15.5,70z"/>
		<path class="st3" d="M1.5,82h18v0.9L9.5,94h10v2h-18v-0.9l10-11.1h-10V82z"/>
		<path class="st3" d="M1.5,106h18v8c0,1.1-0.4,2-1.2,2.8c-0.8,0.8-1.7,1.2-2.8,1.2h-10c-1.1,0-2-0.4-2.8-1.2
			c-0.8-0.8-1.2-1.7-1.2-2.8V106z M3.5,110v2c0,0.6,0.2,1,0.6,1.4c0.4,0.4,0.9,0.6,1.4,0.6h10c0.6,0,1-0.2,1.4-0.6
			c0.4-0.4,0.6-0.9,0.6-1.4v-2H3.5z"/>
		<path class="st3" d="M1.5,122h18v10h-2v-6h-6v4h-2v-4h-6v6h-2V122z"/>
		<path class="st3" d="M15.5,146v-2c1.3-0.2,2-0.8,2-1.9c0-0.7-0.2-1.2-0.5-1.6c-0.3-0.4-0.8-0.5-1.5-0.5c-0.5,0-1,0.2-1.4,0.6
			l-4.8,4.2c-0.9,0.8-1.8,1.2-2.8,1.2h-1c-1.1,0-2-0.4-2.8-1.2c-0.8-0.8-1.2-1.7-1.2-2.8v-2c0-1.3,0.3-2.3,1-3c0.7-0.7,1.7-1,3-1v2
			c-0.1,0-0.3,0-0.3,0c-0.5,0-1,0.2-1.2,0.6c-0.3,0.4-0.4,0.9-0.4,1.4c0,0.7,0.2,1.2,0.5,1.5c0.3,0.3,0.8,0.5,1.5,0.5
			c0.5,0,1-0.2,1.4-0.6l4.8-4.2c0.9-0.8,1.8-1.2,2.8-1.2h1c1.1,0,2,0.4,2.8,1.2s1.2,1.7,1.2,2.8v2C19.5,144.5,18.2,145.8,15.5,146z"
			/>
		<path class="st3" d="M1.5,152h18v4h-18V152z"/>
		<path class="st3" d="M11.5,168v6h-6c-1.3,0-2.3-0.4-3-1.3c-0.7-0.8-1-1.8-1-2.7v-4c0-1.1,0.4-2,1.2-2.8c0.8-0.8,1.7-1.2,2.8-1.2
			h10c1.1,0,2,0.4,2.8,1.2c0.8,0.8,1.2,1.7,1.2,2.8v4c0,2.5-1.3,3.8-4,4v-2c1.3-0.2,2-0.8,2-2v-2c0-0.5-0.2-1-0.6-1.4
			c-0.4-0.4-0.9-0.6-1.4-0.6h-10c-0.6,0-1,0.2-1.4,0.6c-0.4,0.4-0.6,0.9-0.6,1.4c0.1,1.3,0.7,2,2,2h4v-2H11.5z"/>
		<path class="st3" d="M1.5,178h18v0.9L9.5,190h10v2h-18v-0.9l10-11.1h-10V178z"/>
	</g>
</g>
</svg>
