<svg xmlns="http://www.w3.org/2000/svg" viewBox="0 0 30.6 28.8"><defs><style>.cls-1{fill:#fff;}</style></defs><title>资源 1</title><g id="图层_2" data-name="图层 2"><g id="图层_1-2" data-name="图层 1"><path class="cls-1" d="M19.4,28.8H11.2c0-.05,0-.09,0-.14V18.54c0-.06,0-.12,0-.25l-.23.32C10.43,19.4,9.9,20.2,9.38,21a.45.45,0,0,1-.41.21l-7.25.13c-.41,0-.81,0-1.27,0L9.08,8.18l-.32,0H.29L0,8.2V0H30.6V8.2a2.3,2.3,0,0,0-.26,0H22.08l-.32,0,8.62,13.14h-.65c-2.63,0-5.26-.08-7.89-.14a.53.53,0,0,1-.37-.2c-.52-.76-1-1.53-1.54-2.3L19.45,18a.65.65,0,0,0-.08.34V28.47C19.37,28.58,19.39,28.69,19.4,28.8Z"/></g></g></svg>